<svg width="394" height="337" viewBox="0 0 394 337" fill="none" xmlns="http://www.w3.org/2000/svg">
<path d="M111.5 164C84.3 272 106.167 320.667 120.5 331.5L212.5 302.5M212.5 302.5C304.5 191.7 189.5 164 120.5 164L288 111.5M212.5 302.5L279 331.5L311.5 219.5M288 111.5L311.5 219.5M288 111.5H311.5M311.5 219.5L360 111.5L392.5 52.5M331.5 111.5L392.5 52.5M392.5 52.5H279L320.5 111.5" stroke="#0029FF"/>
<path d="M279 50.5L291.5 2L315 50.5M315 50.5H362M315 50.5H291.5M362 50.5L381.5 2L392.5 50.5H362ZM111.5 164L2 38H30.5L129.5 164H111.5Z" stroke="#8482DF"/>
<circle cx="280" cy="332" r="5" fill="#0029FF"/>
<circle cx="280" cy="332" r="5" fill="#0029FF"/>
<circle cx="280" cy="332" r="5" fill="#0029FF"/>
<circle cx="313" cy="219" r="5" fill="#0029FF"/>
<circle cx="313" cy="219" r="5" fill="#0029FF"/>
<circle cx="313" cy="219" r="5" fill="#0029FF"/>
<circle cx="121" cy="332" r="5" fill="#0029FF"/>
<circle cx="121" cy="332" r="5" fill="#0029FF"/>
<circle cx="121" cy="332" r="5" fill="#0029FF"/>
<circle cx="131" cy="164" r="5" fill="#0029FF"/>
<circle cx="131" cy="164" r="5" fill="#0029FF"/>
<circle cx="131" cy="164" r="5" fill="#8482DF"/>
<path d="M329.5 111.5H318.5V120.5V133.5L329.5 111.5Z" stroke="#FF29F6"/>
</svg>
